<?xml version="1.0" encoding="UTF-8" standalone="no"?>
<!DOCTYPE svg PUBLIC "-//W3C//DTD SVG 1.1//EN"
 "http://www.w3.org/Graphics/SVG/1.1/DTD/svg11.dtd">
<!-- Generated by graphviz version 10.0.1 (0)
 -->
<!-- Title: G Pages: 1 -->
<svg width="1107pt" height="548pt"
 viewBox="0.00 0.00 1106.79 548.00" xmlns="http://www.w3.org/2000/svg" xmlns:xlink="http://www.w3.org/1999/xlink">
<g id="graph0" class="graph" transform="scale(1 1) rotate(0) translate(4 544)">
<title>G</title>
<polygon fill="white" stroke="none" points="-4,4 -4,-544 1102.79,-544 1102.79,4 -4,4"/>
<!-- al1rf8f3633fwylmia1k577xjd55mfvb&#45;nodejs&#45;slim&#45;20.17.0 -->
<g id="node1" class="node">
<title>al1rf8f3633fwylmia1k577xjd55mfvb&#45;nodejs&#45;slim&#45;20.17.0</title>
<polygon fill="#ff0000" stroke="black" points="721.75,-36 566.25,-36 566.25,0 721.75,0 721.75,-36"/>
<text text-anchor="middle" x="644" y="-13.32" font-family="Times,serif" font-size="14.00">nodejs&#45;slim&#45;20.17.0</text>
</g>
<!-- 18b6frnaw53mwlcqssndd9n7z09x4f3d&#45;openssl&#45;3.0.14 -->
<g id="node2" class="node">
<title>18b6frnaw53mwlcqssndd9n7z09x4f3d&#45;openssl&#45;3.0.14</title>
<polygon fill="#ff0000" stroke="black" points="914.75,-252 795.25,-252 795.25,-216 914.75,-216 914.75,-252"/>
<text text-anchor="middle" x="855" y="-229.32" font-family="Times,serif" font-size="14.00">openssl&#45;3.0.14</text>
</g>
<!-- 18b6frnaw53mwlcqssndd9n7z09x4f3d&#45;openssl&#45;3.0.14&#45;&gt;al1rf8f3633fwylmia1k577xjd55mfvb&#45;nodejs&#45;slim&#45;20.17.0 -->
<g id="edge1" class="edge">
<title>18b6frnaw53mwlcqssndd9n7z09x4f3d&#45;openssl&#45;3.0.14&#45;&gt;al1rf8f3633fwylmia1k577xjd55mfvb&#45;nodejs&#45;slim&#45;20.17.0</title>
<path fill="none" stroke="black" d="M866.42,-215.58C885.87,-183.49 920.17,-114.47 886,-72 866.8,-48.14 794.1,-34.43 733.34,-26.96"/>
<polygon fill="black" stroke="black" points="734,-23.51 723.66,-25.81 733.18,-30.46 734,-23.51"/>
</g>
<!-- g7ar3xqp2hla6xvp8230nlniswi2mn1z&#45;openssl&#45;3.0.14&#45;dev -->
<g id="node7" class="node">
<title>g7ar3xqp2hla6xvp8230nlniswi2mn1z&#45;openssl&#45;3.0.14&#45;dev</title>
<polygon fill="#ff0000" stroke="black" points="876.75,-108 727.25,-108 727.25,-72 876.75,-72 876.75,-108"/>
<text text-anchor="middle" x="802" y="-85.33" font-family="Times,serif" font-size="14.00">openssl&#45;3.0.14&#45;dev</text>
</g>
<!-- 18b6frnaw53mwlcqssndd9n7z09x4f3d&#45;openssl&#45;3.0.14&#45;&gt;g7ar3xqp2hla6xvp8230nlniswi2mn1z&#45;openssl&#45;3.0.14&#45;dev -->
<g id="edge22" class="edge">
<title>18b6frnaw53mwlcqssndd9n7z09x4f3d&#45;openssl&#45;3.0.14&#45;&gt;g7ar3xqp2hla6xvp8230nlniswi2mn1z&#45;openssl&#45;3.0.14&#45;dev</title>
<path fill="none" stroke="blue" d="M856.76,-215.52C857.93,-197.01 857.76,-167.3 848,-144 843.78,-133.93 836.88,-124.42 829.7,-116.31"/>
<polygon fill="blue" stroke="blue" points="832.36,-114.03 822.94,-109.19 827.29,-118.85 832.36,-114.03"/>
</g>
<!-- bfsvw0q1i96g0kcr9i7qb6pix91a3mzj&#45;openssl&#45;3.0.14&#45;bin -->
<g id="node14" class="node">
<title>bfsvw0q1i96g0kcr9i7qb6pix91a3mzj&#45;openssl&#45;3.0.14&#45;bin</title>
<polygon fill="#ff0000" stroke="black" points="839.25,-180 692.75,-180 692.75,-144 839.25,-144 839.25,-180"/>
<text text-anchor="middle" x="766" y="-157.32" font-family="Times,serif" font-size="14.00">openssl&#45;3.0.14&#45;bin</text>
</g>
<!-- 18b6frnaw53mwlcqssndd9n7z09x4f3d&#45;openssl&#45;3.0.14&#45;&gt;bfsvw0q1i96g0kcr9i7qb6pix91a3mzj&#45;openssl&#45;3.0.14&#45;bin -->
<g id="edge24" class="edge">
<title>18b6frnaw53mwlcqssndd9n7z09x4f3d&#45;openssl&#45;3.0.14&#45;&gt;bfsvw0q1i96g0kcr9i7qb6pix91a3mzj&#45;openssl&#45;3.0.14&#45;bin</title>
<path fill="none" stroke="burlywood" d="M833,-215.7C822.09,-207.11 808.73,-196.61 796.82,-187.24"/>
<polygon fill="burlywood" stroke="burlywood" points="799.27,-184.71 789.25,-181.28 794.94,-190.22 799.27,-184.71"/>
</g>
<!-- 6l8h1h4rzp6xnw7wflgb17dw10xnx33q&#45;zlib&#45;1.3.1 -->
<g id="node3" class="node">
<title>6l8h1h4rzp6xnw7wflgb17dw10xnx33q&#45;zlib&#45;1.3.1</title>
<polygon fill="#ff0000" stroke="black" points="1068,-180 986,-180 986,-144 1068,-144 1068,-180"/>
<text text-anchor="middle" x="1027" y="-157.32" font-family="Times,serif" font-size="14.00">zlib&#45;1.3.1</text>
</g>
<!-- 6l8h1h4rzp6xnw7wflgb17dw10xnx33q&#45;zlib&#45;1.3.1&#45;&gt;al1rf8f3633fwylmia1k577xjd55mfvb&#45;nodejs&#45;slim&#45;20.17.0 -->
<g id="edge2" class="edge">
<title>6l8h1h4rzp6xnw7wflgb17dw10xnx33q&#45;zlib&#45;1.3.1&#45;&gt;al1rf8f3633fwylmia1k577xjd55mfvb&#45;nodejs&#45;slim&#45;20.17.0</title>
<path fill="none" stroke="red" d="M1058.92,-143.54C1071.69,-134.72 1085,-122.73 1092,-108 1098.86,-93.55 1102.63,-83.96 1092,-72 1068.63,-45.71 857.46,-30.22 733.56,-23.32"/>
<polygon fill="red" stroke="red" points="733.91,-19.83 723.73,-22.78 733.52,-26.82 733.91,-19.83"/>
</g>
<!-- x3sgp93jx31wrf4rgj404jvgs76vxbk0&#45;zlib&#45;1.3.1&#45;dev -->
<g id="node11" class="node">
<title>x3sgp93jx31wrf4rgj404jvgs76vxbk0&#45;zlib&#45;1.3.1&#45;dev</title>
<polygon fill="#ff0000" stroke="black" points="1083,-108 971,-108 971,-72 1083,-72 1083,-108"/>
<text text-anchor="middle" x="1027" y="-85.33" font-family="Times,serif" font-size="14.00">zlib&#45;1.3.1&#45;dev</text>
</g>
<!-- 6l8h1h4rzp6xnw7wflgb17dw10xnx33q&#45;zlib&#45;1.3.1&#45;&gt;x3sgp93jx31wrf4rgj404jvgs76vxbk0&#45;zlib&#45;1.3.1&#45;dev -->
<g id="edge42" class="edge">
<title>6l8h1h4rzp6xnw7wflgb17dw10xnx33q&#45;zlib&#45;1.3.1&#45;&gt;x3sgp93jx31wrf4rgj404jvgs76vxbk0&#45;zlib&#45;1.3.1&#45;dev</title>
<path fill="none" stroke="burlywood" d="M1027,-143.7C1027,-136.41 1027,-127.73 1027,-119.54"/>
<polygon fill="burlywood" stroke="burlywood" points="1030.5,-119.62 1027,-109.62 1023.5,-119.62 1030.5,-119.62"/>
</g>
<!-- 7zccxan4m5hwi0rsw4qmr2q1n766jbfw&#45;icu4c&#45;73.2&#45;dev -->
<g id="node4" class="node">
<title>7zccxan4m5hwi0rsw4qmr2q1n766jbfw&#45;icu4c&#45;73.2&#45;dev</title>
<polygon fill="#7ebae4" stroke="black" points="445.75,-108 326.25,-108 326.25,-72 445.75,-72 445.75,-108"/>
<text text-anchor="middle" x="386" y="-85.33" font-family="Times,serif" font-size="14.00">icu4c&#45;73.2&#45;dev</text>
</g>
<!-- 7zccxan4m5hwi0rsw4qmr2q1n766jbfw&#45;icu4c&#45;73.2&#45;dev&#45;&gt;al1rf8f3633fwylmia1k577xjd55mfvb&#45;nodejs&#45;slim&#45;20.17.0 -->
<g id="edge3" class="edge">
<title>7zccxan4m5hwi0rsw4qmr2q1n766jbfw&#45;icu4c&#45;73.2&#45;dev&#45;&gt;al1rf8f3633fwylmia1k577xjd55mfvb&#45;nodejs&#45;slim&#45;20.17.0</title>
<path fill="none" stroke="green" d="M446.16,-72.68C482.7,-62.76 529.65,-50.03 568.64,-39.45"/>
<polygon fill="green" stroke="green" points="569.48,-42.84 578.22,-36.85 567.65,-36.09 569.48,-42.84"/>
</g>
<!-- bwfxyn0klx4ngdq00rjv1rgvl6dcwfxr&#45;libuv&#45;1.48.0&#45;dev -->
<g id="node5" class="node">
<title>bwfxyn0klx4ngdq00rjv1rgvl6dcwfxr&#45;libuv&#45;1.48.0&#45;dev</title>
<polygon fill="#ff0000" stroke="black" points="709.38,-108 578.62,-108 578.62,-72 709.38,-72 709.38,-108"/>
<text text-anchor="middle" x="644" y="-85.33" font-family="Times,serif" font-size="14.00">libuv&#45;1.48.0&#45;dev</text>
</g>
<!-- bwfxyn0klx4ngdq00rjv1rgvl6dcwfxr&#45;libuv&#45;1.48.0&#45;dev&#45;&gt;al1rf8f3633fwylmia1k577xjd55mfvb&#45;nodejs&#45;slim&#45;20.17.0 -->
<g id="edge4" class="edge">
<title>bwfxyn0klx4ngdq00rjv1rgvl6dcwfxr&#45;libuv&#45;1.48.0&#45;dev&#45;&gt;al1rf8f3633fwylmia1k577xjd55mfvb&#45;nodejs&#45;slim&#45;20.17.0</title>
<path fill="none" stroke="blue" d="M644,-71.7C644,-64.41 644,-55.73 644,-47.54"/>
<polygon fill="blue" stroke="blue" points="647.5,-47.62 644,-37.62 640.5,-47.62 647.5,-47.62"/>
</g>
<!-- d2r7d1iafwfnl7asravpr4p8ixc12lc7&#45;icu4c&#45;73.2 -->
<g id="node6" class="node">
<title>d2r7d1iafwfnl7asravpr4p8ixc12lc7&#45;icu4c&#45;73.2</title>
<polygon fill="#7ebae4" stroke="black" points="166.75,-180 77.25,-180 77.25,-144 166.75,-144 166.75,-180"/>
<text text-anchor="middle" x="122" y="-157.32" font-family="Times,serif" font-size="14.00">icu4c&#45;73.2</text>
</g>
<!-- d2r7d1iafwfnl7asravpr4p8ixc12lc7&#45;icu4c&#45;73.2&#45;&gt;al1rf8f3633fwylmia1k577xjd55mfvb&#45;nodejs&#45;slim&#45;20.17.0 -->
<g id="edge5" class="edge">
<title>d2r7d1iafwfnl7asravpr4p8ixc12lc7&#45;icu4c&#45;73.2&#45;&gt;al1rf8f3633fwylmia1k577xjd55mfvb&#45;nodejs&#45;slim&#45;20.17.0</title>
<path fill="none" stroke="magenta" d="M153.07,-143.65C190.72,-123.39 256.64,-90.3 317,-72 395.56,-48.18 488.18,-34.44 554.75,-26.95"/>
<polygon fill="magenta" stroke="magenta" points="554.97,-30.45 564.53,-25.88 554.21,-23.49 554.97,-30.45"/>
</g>
<!-- d2r7d1iafwfnl7asravpr4p8ixc12lc7&#45;icu4c&#45;73.2&#45;&gt;7zccxan4m5hwi0rsw4qmr2q1n766jbfw&#45;icu4c&#45;73.2&#45;dev -->
<g id="edge14" class="edge">
<title>d2r7d1iafwfnl7asravpr4p8ixc12lc7&#45;icu4c&#45;73.2&#45;&gt;7zccxan4m5hwi0rsw4qmr2q1n766jbfw&#45;icu4c&#45;73.2&#45;dev</title>
<path fill="none" stroke="red" d="M167.06,-147.88C171.76,-146.55 176.48,-145.24 181,-144 225.31,-131.89 275.21,-118.98 314.68,-108.93"/>
<polygon fill="red" stroke="red" points="315.49,-112.33 324.32,-106.48 313.76,-105.55 315.49,-112.33"/>
</g>
<!-- g7ar3xqp2hla6xvp8230nlniswi2mn1z&#45;openssl&#45;3.0.14&#45;dev&#45;&gt;al1rf8f3633fwylmia1k577xjd55mfvb&#45;nodejs&#45;slim&#45;20.17.0 -->
<g id="edge6" class="edge">
<title>g7ar3xqp2hla6xvp8230nlniswi2mn1z&#45;openssl&#45;3.0.14&#45;dev&#45;&gt;al1rf8f3633fwylmia1k577xjd55mfvb&#45;nodejs&#45;slim&#45;20.17.0</title>
<path fill="none" stroke="burlywood" d="M762.54,-71.52C741.63,-62.25 715.74,-50.78 693.49,-40.93"/>
<polygon fill="burlywood" stroke="burlywood" points="695.18,-37.85 684.62,-36.99 692.34,-44.25 695.18,-37.85"/>
</g>
<!-- gwxqkkagvqcbf5ac4jm246c6mg7nbp3h&#45;gcc&#45;13.2.0&#45;lib -->
<g id="node8" class="node">
<title>gwxqkkagvqcbf5ac4jm246c6mg7nbp3h&#45;gcc&#45;13.2.0&#45;lib</title>
<polygon fill="#ff0000" stroke="black" points="124,-324 12,-324 12,-288 124,-288 124,-324"/>
<text text-anchor="middle" x="68" y="-301.32" font-family="Times,serif" font-size="14.00">gcc&#45;13.2.0&#45;lib</text>
</g>
<!-- gwxqkkagvqcbf5ac4jm246c6mg7nbp3h&#45;gcc&#45;13.2.0&#45;lib&#45;&gt;al1rf8f3633fwylmia1k577xjd55mfvb&#45;nodejs&#45;slim&#45;20.17.0 -->
<g id="edge7" class="edge">
<title>gwxqkkagvqcbf5ac4jm246c6mg7nbp3h&#45;gcc&#45;13.2.0&#45;lib&#45;&gt;al1rf8f3633fwylmia1k577xjd55mfvb&#45;nodejs&#45;slim&#45;20.17.0</title>
<path fill="none" stroke="black" d="M62.41,-287.82C53.33,-256.42 39.12,-188.9 68,-144 120.03,-63.11 406.22,-33.62 554.63,-23.65"/>
<polygon fill="black" stroke="black" points="554.68,-27.16 564.43,-23.01 554.23,-20.17 554.68,-27.16"/>
</g>
<!-- gwxqkkagvqcbf5ac4jm246c6mg7nbp3h&#45;gcc&#45;13.2.0&#45;lib&#45;&gt;7zccxan4m5hwi0rsw4qmr2q1n766jbfw&#45;icu4c&#45;73.2&#45;dev -->
<g id="edge15" class="edge">
<title>gwxqkkagvqcbf5ac4jm246c6mg7nbp3h&#45;gcc&#45;13.2.0&#45;lib&#45;&gt;7zccxan4m5hwi0rsw4qmr2q1n766jbfw&#45;icu4c&#45;73.2&#45;dev</title>
<path fill="none" stroke="green" d="M88.89,-287.53C111.35,-269.03 148.37,-239.32 182,-216 237.03,-177.84 303.65,-138.17 345.44,-114.03"/>
<polygon fill="green" stroke="green" points="347.01,-117.16 353.94,-109.14 343.52,-111.09 347.01,-117.16"/>
</g>
<!-- gwxqkkagvqcbf5ac4jm246c6mg7nbp3h&#45;gcc&#45;13.2.0&#45;lib&#45;&gt;d2r7d1iafwfnl7asravpr4p8ixc12lc7&#45;icu4c&#45;73.2 -->
<g id="edge20" class="edge">
<title>gwxqkkagvqcbf5ac4jm246c6mg7nbp3h&#45;gcc&#45;13.2.0&#45;lib&#45;&gt;d2r7d1iafwfnl7asravpr4p8ixc12lc7&#45;icu4c&#45;73.2</title>
<path fill="none" stroke="red" d="M74.62,-287.59C83.82,-263.4 100.57,-219.36 111.48,-190.65"/>
<polygon fill="red" stroke="red" points="114.67,-192.12 114.96,-181.53 108.13,-189.63 114.67,-192.12"/>
</g>
<!-- 4g2mbkri2yrj21nsfdpppvmg43zqjj0p&#45;gmp&#45;with&#45;cxx&#45;6.3.0 -->
<g id="node16" class="node">
<title>4g2mbkri2yrj21nsfdpppvmg43zqjj0p&#45;gmp&#45;with&#45;cxx&#45;6.3.0</title>
<polygon fill="#ff0000" stroke="black" points="342.88,-252 191.12,-252 191.12,-216 342.88,-216 342.88,-252"/>
<text text-anchor="middle" x="267" y="-229.32" font-family="Times,serif" font-size="14.00">gmp&#45;with&#45;cxx&#45;6.3.0</text>
</g>
<!-- gwxqkkagvqcbf5ac4jm246c6mg7nbp3h&#45;gcc&#45;13.2.0&#45;lib&#45;&gt;4g2mbkri2yrj21nsfdpppvmg43zqjj0p&#45;gmp&#45;with&#45;cxx&#45;6.3.0 -->
<g id="edge33" class="edge">
<title>gwxqkkagvqcbf5ac4jm246c6mg7nbp3h&#45;gcc&#45;13.2.0&#45;lib&#45;&gt;4g2mbkri2yrj21nsfdpppvmg43zqjj0p&#45;gmp&#45;with&#45;cxx&#45;6.3.0</title>
<path fill="none" stroke="green" d="M117.7,-287.52C144.75,-278 178.42,-266.16 206.94,-256.13"/>
<polygon fill="green" stroke="green" points="207.89,-259.5 216.16,-252.88 205.56,-252.9 207.89,-259.5"/>
</g>
<!-- kpy2cyd05vdr6j1h200av81fnlxl1jw0&#45;glibc&#45;2.39&#45;52 -->
<g id="node9" class="node">
<title>kpy2cyd05vdr6j1h200av81fnlxl1jw0&#45;glibc&#45;2.39&#45;52</title>
<polygon fill="#ff0000" stroke="black" points="603.5,-396 494.5,-396 494.5,-360 603.5,-360 603.5,-396"/>
<text text-anchor="middle" x="549" y="-373.32" font-family="Times,serif" font-size="14.00">glibc&#45;2.39&#45;52</text>
</g>
<!-- kpy2cyd05vdr6j1h200av81fnlxl1jw0&#45;glibc&#45;2.39&#45;52&#45;&gt;al1rf8f3633fwylmia1k577xjd55mfvb&#45;nodejs&#45;slim&#45;20.17.0 -->
<g id="edge8" class="edge">
<title>kpy2cyd05vdr6j1h200av81fnlxl1jw0&#45;glibc&#45;2.39&#45;52&#45;&gt;al1rf8f3633fwylmia1k577xjd55mfvb&#45;nodejs&#45;slim&#45;20.17.0</title>
<path fill="none" stroke="red" d="M603.78,-369C712.04,-351.64 943,-306.26 943,-235 943,-235 943,-235 943,-161 943,-118.33 939.84,-99.25 907,-72 880.82,-50.28 798.91,-36.09 733.38,-27.91"/>
<polygon fill="red" stroke="red" points="734.04,-24.47 723.69,-26.73 733.2,-31.42 734.04,-24.47"/>
</g>
<!-- kpy2cyd05vdr6j1h200av81fnlxl1jw0&#45;glibc&#45;2.39&#45;52&#45;&gt;18b6frnaw53mwlcqssndd9n7z09x4f3d&#45;openssl&#45;3.0.14 -->
<g id="edge12" class="edge">
<title>kpy2cyd05vdr6j1h200av81fnlxl1jw0&#45;glibc&#45;2.39&#45;52&#45;&gt;18b6frnaw53mwlcqssndd9n7z09x4f3d&#45;openssl&#45;3.0.14</title>
<path fill="none" stroke="burlywood" d="M603.8,-372.74C650.82,-367.1 719.03,-354.05 771,-324 797.87,-308.46 821.43,-281.67 836.7,-261.53"/>
<polygon fill="burlywood" stroke="burlywood" points="839.52,-263.61 842.62,-253.48 833.88,-259.47 839.52,-263.61"/>
</g>
<!-- kpy2cyd05vdr6j1h200av81fnlxl1jw0&#45;glibc&#45;2.39&#45;52&#45;&gt;6l8h1h4rzp6xnw7wflgb17dw10xnx33q&#45;zlib&#45;1.3.1 -->
<g id="edge13" class="edge">
<title>kpy2cyd05vdr6j1h200av81fnlxl1jw0&#45;glibc&#45;2.39&#45;52&#45;&gt;6l8h1h4rzp6xnw7wflgb17dw10xnx33q&#45;zlib&#45;1.3.1</title>
<path fill="none" stroke="black" d="M603.62,-376.42C701.68,-374.35 902.42,-365.06 957,-324 999.75,-291.84 1016.78,-228.11 1023.27,-191.21"/>
<polygon fill="black" stroke="black" points="1026.66,-192.16 1024.78,-181.74 1019.75,-191.06 1026.66,-192.16"/>
</g>
<!-- kpy2cyd05vdr6j1h200av81fnlxl1jw0&#45;glibc&#45;2.39&#45;52&#45;&gt;7zccxan4m5hwi0rsw4qmr2q1n766jbfw&#45;icu4c&#45;73.2&#45;dev -->
<g id="edge17" class="edge">
<title>kpy2cyd05vdr6j1h200av81fnlxl1jw0&#45;glibc&#45;2.39&#45;52&#45;&gt;7zccxan4m5hwi0rsw4qmr2q1n766jbfw&#45;icu4c&#45;73.2&#45;dev</title>
<path fill="none" stroke="magenta" d="M494.03,-365.87C467.76,-358.06 437.63,-345.11 417,-324 358.8,-264.44 349.39,-225.79 365,-144 366.61,-135.54 369.56,-126.71 372.74,-118.74"/>
<polygon fill="magenta" stroke="magenta" points="375.95,-120.13 376.68,-109.56 369.52,-117.36 375.95,-120.13"/>
</g>
<!-- kpy2cyd05vdr6j1h200av81fnlxl1jw0&#45;glibc&#45;2.39&#45;52&#45;&gt;d2r7d1iafwfnl7asravpr4p8ixc12lc7&#45;icu4c&#45;73.2 -->
<g id="edge21" class="edge">
<title>kpy2cyd05vdr6j1h200av81fnlxl1jw0&#45;glibc&#45;2.39&#45;52&#45;&gt;d2r7d1iafwfnl7asravpr4p8ixc12lc7&#45;icu4c&#45;73.2</title>
<path fill="none" stroke="green" d="M494.06,-372.13C415.51,-362.41 270.81,-333.91 182,-252 162.81,-234.3 146.66,-209.33 135.97,-190.34"/>
<polygon fill="green" stroke="green" points="139.18,-188.93 131.33,-181.82 133.03,-192.27 139.18,-188.93"/>
</g>
<!-- kpy2cyd05vdr6j1h200av81fnlxl1jw0&#45;glibc&#45;2.39&#45;52&#45;&gt;gwxqkkagvqcbf5ac4jm246c6mg7nbp3h&#45;gcc&#45;13.2.0&#45;lib -->
<g id="edge28" class="edge">
<title>kpy2cyd05vdr6j1h200av81fnlxl1jw0&#45;glibc&#45;2.39&#45;52&#45;&gt;gwxqkkagvqcbf5ac4jm246c6mg7nbp3h&#45;gcc&#45;13.2.0&#45;lib</title>
<path fill="none" stroke="blue" d="M494.19,-371.87C415.11,-364.03 264.63,-347.47 138,-324 137.17,-323.85 136.34,-323.69 135.5,-323.53"/>
<polygon fill="blue" stroke="blue" points="136.41,-320.14 125.91,-321.57 135.01,-327 136.41,-320.14"/>
</g>
<!-- syl4snn859kpqvn9qh91kr7n9i4dws04&#45;bash&#45;5.2p32 -->
<g id="node10" class="node">
<title>syl4snn859kpqvn9qh91kr7n9i4dws04&#45;bash&#45;5.2p32</title>
<polygon fill="#ff0000" stroke="black" points="672.88,-252 569.12,-252 569.12,-216 672.88,-216 672.88,-252"/>
<text text-anchor="middle" x="621" y="-229.32" font-family="Times,serif" font-size="14.00">bash&#45;5.2p32</text>
</g>
<!-- kpy2cyd05vdr6j1h200av81fnlxl1jw0&#45;glibc&#45;2.39&#45;52&#45;&gt;syl4snn859kpqvn9qh91kr7n9i4dws04&#45;bash&#45;5.2p32 -->
<g id="edge40" class="edge">
<title>kpy2cyd05vdr6j1h200av81fnlxl1jw0&#45;glibc&#45;2.39&#45;52&#45;&gt;syl4snn859kpqvn9qh91kr7n9i4dws04&#45;bash&#45;5.2p32</title>
<path fill="none" stroke="blue" d="M557.83,-359.59C570.15,-335.29 592.62,-290.97 607.17,-262.27"/>
<polygon fill="blue" stroke="blue" points="610.24,-263.96 611.64,-253.46 604,-260.8 610.24,-263.96"/>
</g>
<!-- zzg7h6ar8baqy9431pyb3p8hyshdimmf&#45;libuv&#45;1.48.0 -->
<g id="node12" class="node">
<title>zzg7h6ar8baqy9431pyb3p8hyshdimmf&#45;libuv&#45;1.48.0</title>
<polygon fill="#ff0000" stroke="black" points="674.38,-180 573.62,-180 573.62,-144 674.38,-144 674.38,-180"/>
<text text-anchor="middle" x="624" y="-157.32" font-family="Times,serif" font-size="14.00">libuv&#45;1.48.0</text>
</g>
<!-- kpy2cyd05vdr6j1h200av81fnlxl1jw0&#45;glibc&#45;2.39&#45;52&#45;&gt;zzg7h6ar8baqy9431pyb3p8hyshdimmf&#45;libuv&#45;1.48.0 -->
<g id="edge43" class="edge">
<title>kpy2cyd05vdr6j1h200av81fnlxl1jw0&#45;glibc&#45;2.39&#45;52&#45;&gt;zzg7h6ar8baqy9431pyb3p8hyshdimmf&#45;libuv&#45;1.48.0</title>
<path fill="none" stroke="black" d="M578.72,-359.6C611.1,-338.74 661.06,-300.43 682,-252 688.35,-237.31 688.45,-230.64 682,-216 677.25,-205.23 669.12,-195.71 660.43,-187.81"/>
<polygon fill="black" stroke="black" points="662.72,-185.16 652.81,-181.43 658.23,-190.53 662.72,-185.16"/>
</g>
<!-- hazsx60lrysd393fw7z7vpy4g6gn4acd&#45;coreutils&#45;9.5 -->
<g id="node13" class="node">
<title>hazsx60lrysd393fw7z7vpy4g6gn4acd&#45;coreutils&#45;9.5</title>
<polygon fill="#ff0000" stroke="black" points="479.62,-180 374.38,-180 374.38,-144 479.62,-144 479.62,-180"/>
<text text-anchor="middle" x="427" y="-157.32" font-family="Times,serif" font-size="14.00">coreutils&#45;9.5</text>
</g>
<!-- kpy2cyd05vdr6j1h200av81fnlxl1jw0&#45;glibc&#45;2.39&#45;52&#45;&gt;hazsx60lrysd393fw7z7vpy4g6gn4acd&#45;coreutils&#45;9.5 -->
<g id="edge31" class="edge">
<title>kpy2cyd05vdr6j1h200av81fnlxl1jw0&#45;glibc&#45;2.39&#45;52&#45;&gt;hazsx60lrysd393fw7z7vpy4g6gn4acd&#45;coreutils&#45;9.5</title>
<path fill="none" stroke="black" d="M547.82,-359.6C544.85,-327.85 534.6,-259.78 500,-216 491.2,-204.86 479.48,-194.97 468.01,-186.84"/>
<polygon fill="black" stroke="black" points="470.01,-183.96 459.77,-181.27 466.1,-189.77 470.01,-183.96"/>
</g>
<!-- kpy2cyd05vdr6j1h200av81fnlxl1jw0&#45;glibc&#45;2.39&#45;52&#45;&gt;bfsvw0q1i96g0kcr9i7qb6pix91a3mzj&#45;openssl&#45;3.0.14&#45;bin -->
<g id="edge25" class="edge">
<title>kpy2cyd05vdr6j1h200av81fnlxl1jw0&#45;glibc&#45;2.39&#45;52&#45;&gt;bfsvw0q1i96g0kcr9i7qb6pix91a3mzj&#45;openssl&#45;3.0.14&#45;bin</title>
<path fill="none" stroke="black" d="M597.67,-359.54C617.49,-350.88 639.74,-339.01 657,-324 701.2,-285.55 735.56,-225.24 753.12,-190.38"/>
<polygon fill="black" stroke="black" points="756.07,-192.31 757.35,-181.79 749.79,-189.21 756.07,-192.31"/>
</g>
<!-- kpy2cyd05vdr6j1h200av81fnlxl1jw0&#45;glibc&#45;2.39&#45;52&#45;&gt;4g2mbkri2yrj21nsfdpppvmg43zqjj0p&#45;gmp&#45;with&#45;cxx&#45;6.3.0 -->
<g id="edge34" class="edge">
<title>kpy2cyd05vdr6j1h200av81fnlxl1jw0&#45;glibc&#45;2.39&#45;52&#45;&gt;4g2mbkri2yrj21nsfdpppvmg43zqjj0p&#45;gmp&#45;with&#45;cxx&#45;6.3.0</title>
<path fill="none" stroke="blue" d="M494.39,-369.54C454.31,-362.31 399.65,-348.68 357,-324 329.25,-307.94 303.9,-281.28 287.23,-261.32"/>
<polygon fill="blue" stroke="blue" points="289.96,-259.13 280.94,-253.58 284.53,-263.55 289.96,-259.13"/>
</g>
<!-- k7anyzhw02qbxk2pndz490c58ys6a5kb&#45;acl&#45;2.3.2 -->
<g id="node17" class="node">
<title>k7anyzhw02qbxk2pndz490c58ys6a5kb&#45;acl&#45;2.3.2</title>
<polygon fill="#ff0000" stroke="black" points="475.38,-252 398.62,-252 398.62,-216 475.38,-216 475.38,-252"/>
<text text-anchor="middle" x="437" y="-229.32" font-family="Times,serif" font-size="14.00">acl&#45;2.3.2</text>
</g>
<!-- kpy2cyd05vdr6j1h200av81fnlxl1jw0&#45;glibc&#45;2.39&#45;52&#45;&gt;k7anyzhw02qbxk2pndz490c58ys6a5kb&#45;acl&#45;2.3.2 -->
<g id="edge35" class="edge">
<title>kpy2cyd05vdr6j1h200av81fnlxl1jw0&#45;glibc&#45;2.39&#45;52&#45;&gt;k7anyzhw02qbxk2pndz490c58ys6a5kb&#45;acl&#45;2.3.2</title>
<path fill="none" stroke="magenta" d="M494.02,-367.05C469.44,-359.57 442.74,-346.56 428,-324 416.32,-306.13 419.78,-281.79 425.49,-263.08"/>
<polygon fill="magenta" stroke="magenta" points="428.77,-264.29 428.72,-253.7 422.15,-262.01 428.77,-264.29"/>
</g>
<!-- wvy0a2fmwm429n7z1lyqsk5rg02sli17&#45;attr&#45;2.5.2 -->
<g id="node18" class="node">
<title>wvy0a2fmwm429n7z1lyqsk5rg02sli17&#45;attr&#45;2.5.2</title>
<polygon fill="#ff0000" stroke="black" points="520.75,-324 437.25,-324 437.25,-288 520.75,-288 520.75,-324"/>
<text text-anchor="middle" x="479" y="-301.32" font-family="Times,serif" font-size="14.00">attr&#45;2.5.2</text>
</g>
<!-- kpy2cyd05vdr6j1h200av81fnlxl1jw0&#45;glibc&#45;2.39&#45;52&#45;&gt;wvy0a2fmwm429n7z1lyqsk5rg02sli17&#45;attr&#45;2.5.2 -->
<g id="edge41" class="edge">
<title>kpy2cyd05vdr6j1h200av81fnlxl1jw0&#45;glibc&#45;2.39&#45;52&#45;&gt;wvy0a2fmwm429n7z1lyqsk5rg02sli17&#45;attr&#45;2.5.2</title>
<path fill="none" stroke="magenta" d="M531.7,-359.7C523.39,-351.39 513.28,-341.28 504.14,-332.14"/>
<polygon fill="magenta" stroke="magenta" points="506.72,-329.77 497.17,-325.17 501.77,-334.72 506.72,-329.77"/>
</g>
<!-- syl4snn859kpqvn9qh91kr7n9i4dws04&#45;bash&#45;5.2p32&#45;&gt;al1rf8f3633fwylmia1k577xjd55mfvb&#45;nodejs&#45;slim&#45;20.17.0 -->
<g id="edge9" class="edge">
<title>syl4snn859kpqvn9qh91kr7n9i4dws04&#45;bash&#45;5.2p32&#45;&gt;al1rf8f3633fwylmia1k577xjd55mfvb&#45;nodejs&#45;slim&#45;20.17.0</title>
<path fill="none" stroke="green" d="M595.31,-215.62C583.96,-206.45 571.69,-194.16 565,-180 544.48,-136.55 536.8,-114.08 560,-72 566.77,-59.73 577.7,-49.91 589.48,-42.22"/>
<polygon fill="green" stroke="green" points="590.96,-45.41 597.74,-37.28 587.36,-39.4 590.96,-45.41"/>
</g>
<!-- syl4snn859kpqvn9qh91kr7n9i4dws04&#45;bash&#45;5.2p32&#45;&gt;7zccxan4m5hwi0rsw4qmr2q1n766jbfw&#45;icu4c&#45;73.2&#45;dev -->
<g id="edge18" class="edge">
<title>syl4snn859kpqvn9qh91kr7n9i4dws04&#45;bash&#45;5.2p32&#45;&gt;7zccxan4m5hwi0rsw4qmr2q1n766jbfw&#45;icu4c&#45;73.2&#45;dev</title>
<path fill="none" stroke="burlywood" d="M588.92,-215.55C571.64,-205.74 550.19,-192.9 532,-180 511.67,-165.58 509.76,-157.79 489,-144 472.05,-132.75 452.42,-122.11 434.87,-113.37"/>
<polygon fill="burlywood" stroke="burlywood" points="436.69,-110.36 426.17,-109.11 433.61,-116.65 436.69,-110.36"/>
</g>
<!-- syl4snn859kpqvn9qh91kr7n9i4dws04&#45;bash&#45;5.2p32&#45;&gt;bfsvw0q1i96g0kcr9i7qb6pix91a3mzj&#45;openssl&#45;3.0.14&#45;bin -->
<g id="edge26" class="edge">
<title>syl4snn859kpqvn9qh91kr7n9i4dws04&#45;bash&#45;5.2p32&#45;&gt;bfsvw0q1i96g0kcr9i7qb6pix91a3mzj&#45;openssl&#45;3.0.14&#45;bin</title>
<path fill="none" stroke="red" d="M657.22,-215.52C676.14,-206.38 699.52,-195.09 719.75,-185.33"/>
<polygon fill="red" stroke="red" points="721.15,-188.54 728.63,-181.04 718.1,-182.24 721.15,-188.54"/>
</g>
<!-- x3sgp93jx31wrf4rgj404jvgs76vxbk0&#45;zlib&#45;1.3.1&#45;dev&#45;&gt;al1rf8f3633fwylmia1k577xjd55mfvb&#45;nodejs&#45;slim&#45;20.17.0 -->
<g id="edge10" class="edge">
<title>x3sgp93jx31wrf4rgj404jvgs76vxbk0&#45;zlib&#45;1.3.1&#45;dev&#45;&gt;al1rf8f3633fwylmia1k577xjd55mfvb&#45;nodejs&#45;slim&#45;20.17.0</title>
<path fill="none" stroke="blue" d="M970.53,-74.92C965.96,-73.9 961.41,-72.91 957,-72 881.89,-56.54 795.96,-42.23 733.16,-32.38"/>
<polygon fill="blue" stroke="blue" points="734.02,-28.98 723.6,-30.89 732.94,-35.89 734.02,-28.98"/>
</g>
<!-- zzg7h6ar8baqy9431pyb3p8hyshdimmf&#45;libuv&#45;1.48.0&#45;&gt;al1rf8f3633fwylmia1k577xjd55mfvb&#45;nodejs&#45;slim&#45;20.17.0 -->
<g id="edge11" class="edge">
<title>zzg7h6ar8baqy9431pyb3p8hyshdimmf&#45;libuv&#45;1.48.0&#45;&gt;al1rf8f3633fwylmia1k577xjd55mfvb&#45;nodejs&#45;slim&#45;20.17.0</title>
<path fill="none" stroke="magenta" d="M598.79,-143.63C587.74,-134.46 575.95,-122.17 570,-108 563.81,-93.25 562.69,-86.23 570,-72 576.03,-60.26 586.01,-50.54 596.71,-42.77"/>
<polygon fill="magenta" stroke="magenta" points="598.57,-45.73 604.96,-37.28 594.69,-39.9 598.57,-45.73"/>
</g>
<!-- zzg7h6ar8baqy9431pyb3p8hyshdimmf&#45;libuv&#45;1.48.0&#45;&gt;bwfxyn0klx4ngdq00rjv1rgvl6dcwfxr&#45;libuv&#45;1.48.0&#45;dev -->
<g id="edge19" class="edge">
<title>zzg7h6ar8baqy9431pyb3p8hyshdimmf&#45;libuv&#45;1.48.0&#45;&gt;bwfxyn0klx4ngdq00rjv1rgvl6dcwfxr&#45;libuv&#45;1.48.0&#45;dev</title>
<path fill="none" stroke="black" d="M628.94,-143.7C631.08,-136.24 633.62,-127.32 636.01,-118.97"/>
<polygon fill="black" stroke="black" points="639.32,-120.14 638.7,-109.56 632.58,-118.21 639.32,-120.14"/>
</g>
<!-- hazsx60lrysd393fw7z7vpy4g6gn4acd&#45;coreutils&#45;9.5&#45;&gt;7zccxan4m5hwi0rsw4qmr2q1n766jbfw&#45;icu4c&#45;73.2&#45;dev -->
<g id="edge16" class="edge">
<title>hazsx60lrysd393fw7z7vpy4g6gn4acd&#45;coreutils&#45;9.5&#45;&gt;7zccxan4m5hwi0rsw4qmr2q1n766jbfw&#45;icu4c&#45;73.2&#45;dev</title>
<path fill="none" stroke="blue" d="M416.87,-143.7C412.3,-135.9 406.8,-126.51 401.71,-117.83"/>
<polygon fill="blue" stroke="blue" points="404.86,-116.27 396.78,-109.41 398.82,-119.81 404.86,-116.27"/>
</g>
<!-- bfsvw0q1i96g0kcr9i7qb6pix91a3mzj&#45;openssl&#45;3.0.14&#45;bin&#45;&gt;g7ar3xqp2hla6xvp8230nlniswi2mn1z&#45;openssl&#45;3.0.14&#45;dev -->
<g id="edge23" class="edge">
<title>bfsvw0q1i96g0kcr9i7qb6pix91a3mzj&#45;openssl&#45;3.0.14&#45;bin&#45;&gt;g7ar3xqp2hla6xvp8230nlniswi2mn1z&#45;openssl&#45;3.0.14&#45;dev</title>
<path fill="none" stroke="magenta" d="M774.9,-143.7C778.87,-135.98 783.63,-126.71 788.06,-118.11"/>
<polygon fill="magenta" stroke="magenta" points="791.05,-119.94 792.51,-109.45 784.83,-116.74 791.05,-119.94"/>
</g>
<!-- b60a6findsk5fv5080xkp7fzld280z4i&#45;gcc&#45;13.2.0&#45;libgcc -->
<g id="node15" class="node">
<title>b60a6findsk5fv5080xkp7fzld280z4i&#45;gcc&#45;13.2.0&#45;libgcc</title>
<polygon fill="#ff0000" stroke="black" points="136,-396 0,-396 0,-360 136,-360 136,-396"/>
<text text-anchor="middle" x="68" y="-373.32" font-family="Times,serif" font-size="14.00">gcc&#45;13.2.0&#45;libgcc</text>
</g>
<!-- b60a6findsk5fv5080xkp7fzld280z4i&#45;gcc&#45;13.2.0&#45;libgcc&#45;&gt;gwxqkkagvqcbf5ac4jm246c6mg7nbp3h&#45;gcc&#45;13.2.0&#45;lib -->
<g id="edge27" class="edge">
<title>b60a6findsk5fv5080xkp7fzld280z4i&#45;gcc&#45;13.2.0&#45;libgcc&#45;&gt;gwxqkkagvqcbf5ac4jm246c6mg7nbp3h&#45;gcc&#45;13.2.0&#45;lib</title>
<path fill="none" stroke="green" d="M68,-359.7C68,-352.41 68,-343.73 68,-335.54"/>
<polygon fill="green" stroke="green" points="71.5,-335.62 68,-325.62 64.5,-335.62 71.5,-335.62"/>
</g>
<!-- 4g2mbkri2yrj21nsfdpppvmg43zqjj0p&#45;gmp&#45;with&#45;cxx&#45;6.3.0&#45;&gt;hazsx60lrysd393fw7z7vpy4g6gn4acd&#45;coreutils&#45;9.5 -->
<g id="edge29" class="edge">
<title>4g2mbkri2yrj21nsfdpppvmg43zqjj0p&#45;gmp&#45;with&#45;cxx&#45;6.3.0&#45;&gt;hazsx60lrysd393fw7z7vpy4g6gn4acd&#45;coreutils&#45;9.5</title>
<path fill="none" stroke="magenta" d="M306.96,-215.52C328.14,-206.25 354.35,-194.78 376.88,-184.93"/>
<polygon fill="magenta" stroke="magenta" points="378.13,-188.2 385.88,-180.99 375.32,-181.79 378.13,-188.2"/>
</g>
<!-- k7anyzhw02qbxk2pndz490c58ys6a5kb&#45;acl&#45;2.3.2&#45;&gt;hazsx60lrysd393fw7z7vpy4g6gn4acd&#45;coreutils&#45;9.5 -->
<g id="edge30" class="edge">
<title>k7anyzhw02qbxk2pndz490c58ys6a5kb&#45;acl&#45;2.3.2&#45;&gt;hazsx60lrysd393fw7z7vpy4g6gn4acd&#45;coreutils&#45;9.5</title>
<path fill="none" stroke="burlywood" d="M434.53,-215.7C433.47,-208.32 432.22,-199.52 431.04,-191.25"/>
<polygon fill="burlywood" stroke="burlywood" points="434.54,-191.01 429.66,-181.6 427.61,-192 434.54,-191.01"/>
</g>
<!-- wvy0a2fmwm429n7z1lyqsk5rg02sli17&#45;attr&#45;2.5.2&#45;&gt;hazsx60lrysd393fw7z7vpy4g6gn4acd&#45;coreutils&#45;9.5 -->
<g id="edge32" class="edge">
<title>wvy0a2fmwm429n7z1lyqsk5rg02sli17&#45;attr&#45;2.5.2&#45;&gt;hazsx60lrysd393fw7z7vpy4g6gn4acd&#45;coreutils&#45;9.5</title>
<path fill="none" stroke="red" d="M484.4,-287.79C489.23,-269.25 494.14,-239.27 484,-216 479.3,-205.22 471.22,-195.65 462.59,-187.71"/>
<polygon fill="red" stroke="red" points="464.92,-185.1 455.03,-181.3 460.4,-190.44 464.92,-185.1"/>
</g>
<!-- wvy0a2fmwm429n7z1lyqsk5rg02sli17&#45;attr&#45;2.5.2&#45;&gt;k7anyzhw02qbxk2pndz490c58ys6a5kb&#45;acl&#45;2.3.2 -->
<g id="edge36" class="edge">
<title>wvy0a2fmwm429n7z1lyqsk5rg02sli17&#45;attr&#45;2.5.2&#45;&gt;k7anyzhw02qbxk2pndz490c58ys6a5kb&#45;acl&#45;2.3.2</title>
<path fill="none" stroke="burlywood" d="M468.62,-287.7C463.94,-279.9 458.31,-270.51 453.1,-261.83"/>
<polygon fill="burlywood" stroke="burlywood" points="456.19,-260.18 448.04,-253.4 450.19,-263.78 456.19,-260.18"/>
</g>
<!-- 2y852kcvb7shrj8f3z8j22pa0iybcbgj&#45;xgcc&#45;13.2.0&#45;libgcc -->
<g id="node19" class="node">
<title>2y852kcvb7shrj8f3z8j22pa0iybcbgj&#45;xgcc&#45;13.2.0&#45;libgcc</title>
<polygon fill="#ff0000" stroke="black" points="550.12,-468 405.88,-468 405.88,-432 550.12,-432 550.12,-468"/>
<text text-anchor="middle" x="478" y="-445.32" font-family="Times,serif" font-size="14.00">xgcc&#45;13.2.0&#45;libgcc</text>
</g>
<!-- 2y852kcvb7shrj8f3z8j22pa0iybcbgj&#45;xgcc&#45;13.2.0&#45;libgcc&#45;&gt;kpy2cyd05vdr6j1h200av81fnlxl1jw0&#45;glibc&#45;2.39&#45;52 -->
<g id="edge37" class="edge">
<title>2y852kcvb7shrj8f3z8j22pa0iybcbgj&#45;xgcc&#45;13.2.0&#45;libgcc&#45;&gt;kpy2cyd05vdr6j1h200av81fnlxl1jw0&#45;glibc&#45;2.39&#45;52</title>
<path fill="none" stroke="black" d="M495.55,-431.7C503.98,-423.39 514.23,-413.28 523.5,-404.14"/>
<polygon fill="black" stroke="black" points="525.91,-406.68 530.57,-397.17 521,-401.7 525.91,-406.68"/>
</g>
<!-- 9jivp79yv91fl1i6ayq2107a78q7k43i&#45;libidn2&#45;2.3.7 -->
<g id="node20" class="node">
<title>9jivp79yv91fl1i6ayq2107a78q7k43i&#45;libidn2&#45;2.3.7</title>
<polygon fill="#ff0000" stroke="black" points="674,-468 568,-468 568,-432 674,-432 674,-468"/>
<text text-anchor="middle" x="621" y="-445.32" font-family="Times,serif" font-size="14.00">libidn2&#45;2.3.7</text>
</g>
<!-- 9jivp79yv91fl1i6ayq2107a78q7k43i&#45;libidn2&#45;2.3.7&#45;&gt;kpy2cyd05vdr6j1h200av81fnlxl1jw0&#45;glibc&#45;2.39&#45;52 -->
<g id="edge38" class="edge">
<title>9jivp79yv91fl1i6ayq2107a78q7k43i&#45;libidn2&#45;2.3.7&#45;&gt;kpy2cyd05vdr6j1h200av81fnlxl1jw0&#45;glibc&#45;2.39&#45;52</title>
<path fill="none" stroke="red" d="M603.2,-431.7C594.72,-423.45 584.41,-413.43 575.07,-404.35"/>
<polygon fill="red" stroke="red" points="577.54,-401.86 567.93,-397.4 572.66,-406.88 577.54,-401.86"/>
</g>
<!-- zvwpisszhpkkk8spqyya8n3bpm7wj39p&#45;libunistring&#45;1.1 -->
<g id="node21" class="node">
<title>zvwpisszhpkkk8spqyya8n3bpm7wj39p&#45;libunistring&#45;1.1</title>
<polygon fill="#ff0000" stroke="black" points="684.12,-540 557.88,-540 557.88,-504 684.12,-504 684.12,-540"/>
<text text-anchor="middle" x="621" y="-517.33" font-family="Times,serif" font-size="14.00">libunistring&#45;1.1</text>
</g>
<!-- zvwpisszhpkkk8spqyya8n3bpm7wj39p&#45;libunistring&#45;1.1&#45;&gt;9jivp79yv91fl1i6ayq2107a78q7k43i&#45;libidn2&#45;2.3.7 -->
<g id="edge39" class="edge">
<title>zvwpisszhpkkk8spqyya8n3bpm7wj39p&#45;libunistring&#45;1.1&#45;&gt;9jivp79yv91fl1i6ayq2107a78q7k43i&#45;libidn2&#45;2.3.7</title>
<path fill="none" stroke="green" d="M621,-503.7C621,-496.41 621,-487.73 621,-479.54"/>
<polygon fill="green" stroke="green" points="624.5,-479.62 621,-469.62 617.5,-479.62 624.5,-479.62"/>
</g>
</g>
</svg>
