<?xml version='1.0' encoding='UTF-8'?>
<svg width="63mm" height="63mm" version="1.1" viewBox="0 0 63 63" fill_color="black" back_color="white" xmlns="http://www.w3.org/2000/svg"><path d="M1,1H2V2H1zM2,1H3V2H2zM3,1H4V2H3zM4,1H5V2H4zM5,1H6V2H5zM6,1H7V2H6zM7,1H8V2H7zM11,1H12V2H11zM12,1H13V2H12zM13,1H14V2H13zM17,1H18V2H17zM18,1H19V2H18zM22,1H23V2H22zM25,1H26V2H25zM26,1H27V2H26zM27,1H28V2H27zM31,1H32V2H31zM34,1H35V2H34zM37,1H38V2H37zM38,1H39V2H38zM41,1H42V2H41zM42,1H43V2H42zM43,1H44V2H43zM44,1H45V2H44zM46,1H47V2H46zM50,1H51V2H50zM52,1H53V2H52zM53,1H54V2H53zM55,1H56V2H55zM56,1H57V2H56zM57,1H58V2H57zM58,1H59V2H58zM59,1H60V2H59zM60,1H61V2H60zM61,1H62V2H61zM1,2H2V3H1zM7,2H8V3H7zM9,2H10V3H9zM12,2H13V3H12zM13,2H14V3H13zM15,2H16V3H15zM16,2H17V3H16zM17,2H18V3H17zM18,2H19V3H18zM19,2H20V3H19zM29,2H30V3H29zM30,2H31V3H30zM32,2H33V3H32zM35,2H36V3H35zM36,2H37V3H36zM37,2H38V3H37zM38,2H39V3H38zM40,2H41V3H40zM41,2H42V3H41zM45,2H46V3H45zM47,2H48V3H47zM48,2H49V3H48zM50,2H51V3H50zM52,2H53V3H52zM53,2H54V3H53zM55,2H56V3H55zM61,2H62V3H61zM1,3H2V4H1zM3,3H4V4H3zM4,3H5V4H4zM5,3H6V4H5zM7,3H8V4H7zM10,3H11V4H10zM11,3H12V4H11zM15,3H16V4H15zM17,3H18V4H17zM19,3H20V4H19zM20,3H21V4H20zM21,3H22V4H21zM28,3H29V4H28zM30,3H31V4H30zM31,3H32V4H31zM35,3H36V4H35zM37,3H38V4H37zM39,3H40V4H39zM41,3H42V4H41zM42,3H43V4H42zM43,3H44V4H43zM45,3H46V4H45zM51,3H52V4H51zM52,3H53V4H52zM53,3H54V4H53zM55,3H56V4H55zM57,3H58V4H57zM58,3H59V4H58zM59,3H60V4H59zM61,3H62V4H61zM1,4H2V5H1zM3,4H4V5H3zM4,4H5V5H4zM5,4H6V5H5zM7,4H8V5H7zM9,4H10V5H9zM10,4H11V5H10zM13,4H14V5H13zM14,4H15V5H14zM17,4H18V5H17zM18,4H19V5H18zM19,4H20V5H19zM20,4H21V5H20zM24,4H25V5H24zM25,4H26V5H25zM29,4H30V5H29zM30,4H31V5H30zM32,4H33V5H32zM34,4H35V5H34zM35,4H36V5H35zM36,4H37V5H36zM37,4H38V5H37zM40,4H41V5H40zM41,4H42V5H41zM42,4H43V5H42zM44,4H45V5H44zM46,4H47V5H46zM47,4H48V5H47zM48,4H49V5H48zM49,4H50V5H49zM50,4H51V5H50zM51,4H52V5H51zM53,4H54V5H53zM55,4H56V5H55zM57,4H58V5H57zM58,4H59V5H58zM59,4H60V5H59zM61,4H62V5H61zM1,5H2V6H1zM3,5H4V6H3zM4,5H5V6H4zM5,5H6V6H5zM7,5H8V6H7zM10,5H11V6H10zM12,5H13V6H12zM13,5H14V6H13zM14,5H15V6H14zM15,5H16V6H15zM20,5H21V6H20zM22,5H23V6H22zM23,5H24V6H23zM24,5H25V6H24zM25,5H26V6H25zM26,5H27V6H26zM27,5H28V6H27zM29,5H30V6H29zM30,5H31V6H30zM31,5H32V6H31zM32,5H33V6H32zM33,5H34V6H33zM34,5H35V6H34zM41,5H42V6H41zM43,5H44V6H43zM44,5H45V6H44zM45,5H46V6H45zM46,5H47V6H46zM48,5H49V6H48zM51,5H52V6H51zM52,5H53V6H52zM55,5H56V6H55zM57,5H58V6H57zM58,5H59V6H58zM59,5H60V6H59zM61,5H62V6H61zM1,6H2V7H1zM7,6H8V7H7zM9,6H10V7H9zM12,6H13V7H12zM13,6H14V7H13zM16,6H17V7H16zM19,6H20V7H19zM21,6H22V7H21zM24,6H25V7H24zM28,6H29V7H28zM29,6H30V7H29zM33,6H34V7H33zM35,6H36V7H35zM37,6H38V7H37zM38,6H39V7H38zM39,6H40V7H39zM40,6H41V7H40zM46,6H47V7H46zM47,6H48V7H47zM48,6H49V7H48zM49,6H50V7H49zM51,6H52V7H51zM55,6H56V7H55zM61,6H62V7H61zM1,7H2V8H1zM2,7H3V8H2zM3,7H4V8H3zM4,7H5V8H4zM5,7H6V8H5zM6,7H7V8H6zM7,7H8V8H7zM9,7H10V8H9zM11,7H12V8H11zM13,7H14V8H13zM15,7H16V8H15zM17,7H18V8H17zM19,7H20V8H19zM21,7H22V8H21zM23,7H24V8H23zM25,7H26V8H25zM27,7H28V8H27zM29,7H30V8H29zM31,7H32V8H31zM33,7H34V8H33zM35,7H36V8H35zM37,7H38V8H37zM39,7H40V8H39zM41,7H42V8H41zM43,7H44V8H43zM45,7H46V8H45zM47,7H48V8H47zM49,7H50V8H49zM51,7H52V8H51zM53,7H54V8H53zM55,7H56V8H55zM56,7H57V8H56zM57,7H58V8H57zM58,7H59V8H58zM59,7H60V8H59zM60,7H61V8H60zM61,7H62V8H61zM10,8H11V9H10zM15,8H16V9H15zM17,8H18V9H17zM18,8H19V9H18zM19,8H20V9H19zM21,8H22V9H21zM26,8H27V9H26zM27,8H28V9H27zM29,8H30V9H29zM33,8H34V9H33zM34,8H35V9H34zM38,8H39V9H38zM39,8H40V9H39zM40,8H41V9H40zM41,8H42V9H41zM44,8H45V9H44zM45,8H46V9H45zM48,8H49V9H48zM49,8H50V9H49zM51,8H52V9H51zM52,8H53V9H52zM53,8H54V9H53zM1,9H2V10H1zM2,9H3V10H2zM3,9H4V10H3zM4,9H5V10H4zM5,9H6V10H5zM7,9H8V10H7zM8,9H9V10H8zM9,9H10V10H9zM12,9H13V10H12zM13,9H14V10H13zM14,9H15V10H14zM16,9H17V10H16zM17,9H18V10H17zM18,9H19V10H18zM19,9H20V10H19zM22,9H23V10H22zM24,9H25V10H24zM26,9H27V10H26zM29,9H30V10H29zM30,9H31V10H30zM31,9H32V10H31zM32,9H33V10H32zM33,9H34V10H33zM36,9H37V10H36zM37,9H38V10H37zM40,9H41V10H40zM46,9H47V10H46zM48,9H49V10H48zM49,9H50V10H49zM51,9H52V10H51zM53,9H54V10H53zM54,9H55V10H54zM56,9H57V10H56zM58,9H59V10H58zM60,9H61V10H60zM3,10H4V11H3zM4,10H5V11H4zM5,10H6V11H5zM8,10H9V11H8zM9,10H10V11H9zM10,10H11V11H10zM11,10H12V11H11zM12,10H13V11H12zM13,10H14V11H13zM15,10H16V11H15zM18,10H19V11H18zM19,10H20V11H19zM20,10H21V11H20zM22,10H23V11H22zM24,10H25V11H24zM25,10H26V11H25zM27,10H28V11H27zM29,10H30V11H29zM31,10H32V11H31zM32,10H33V11H32zM33,10H34V11H33zM36,10H37V11H36zM37,10H38V11H37zM38,10H39V11H38zM41,10H42V11H41zM42,10H43V11H42zM43,10H44V11H43zM45,10H46V11H45zM48,10H49V11H48zM50,10H51V11H50zM54,10H55V11H54zM55,10H56V11H55zM57,10H58V11H57zM61,10H62V11H61zM4,11H5V12H4zM7,11H8V12H7zM10,11H11V12H10zM12,11H13V12H12zM13,11H14V12H13zM18,11H19V12H18zM19,11H20V12H19zM20,11H21V12H20zM21,11H22V12H21zM24,11H25V12H24zM25,11H26V12H25zM26,11H27V12H26zM29,11H30V12H29zM31,11H32V12H31zM34,11H35V12H34zM35,11H36V12H35zM38,11H39V12H38zM39,11H40V12H39zM40,11H41V12H40zM41,11H42V12H41zM42,11H43V12H42zM43,11H44V12H43zM44,11H45V12H44zM45,11H46V12H45zM50,11H51V12H50zM55,11H56V12H55zM56,11H57V12H56zM58,11H59V12H58zM60,11H61V12H60zM61,11H62V12H61zM1,12H2V13H1zM2,12H3V13H2zM8,12H9V13H8zM9,12H10V13H9zM11,12H12V13H11zM13,12H14V13H13zM18,12H19V13H18zM19,12H20V13H19zM22,12H23V13H22zM24,12H25V13H24zM25,12H26V13H25zM26,12H27V13H26zM31,12H32V13H31zM33,12H34V13H33zM35,12H36V13H35zM38,12H39V13H38zM41,12H42V13H41zM43,12H44V13H43zM45,12H46V13H45zM46,12H47V13H46zM55,12H56V13H55zM57,12H58V13H57zM58,12H59V13H58zM1,13H2V14H1zM4,13H5V14H4zM6,13H7V14H6zM7,13H8V14H7zM8,13H9V14H8zM10,13H11V14H10zM12,13H13V14H12zM13,13H14V14H13zM14,13H15V14H14zM17,13H18V14H17zM18,13H19V14H18zM19,13H20V14H19zM20,13H21V14H20zM21,13H22V14H21zM24,13H25V14H24zM26,13H27V14H26zM28,13H29V14H28zM30,13H31V14H30zM34,13H35V14H34zM36,13H37V14H36zM37,13H38V14H37zM39,13H40V14H39zM40,13H41V14H40zM44,13H45V14H44zM48,13H49V14H48zM49,13H50V14H49zM51,13H52V14H51zM53,13H54V14H53zM54,13H55V14H54zM55,13H56V14H55zM56,13H57V14H56zM59,13H60V14H59zM61,13H62V14H61zM1,14H2V15H1zM8,14H9V15H8zM11,14H12V15H11zM12,14H13V15H12zM13,14H14V15H13zM15,14H16V15H15zM16,14H17V15H16zM19,14H20V15H19zM20,14H21V15H20zM24,14H25V15H24zM25,14H26V15H25zM27,14H28V15H27zM30,14H31V15H30zM31,14H32V15H31zM33,14H34V15H33zM34,14H35V15H34zM36,14H37V15H36zM37,14H38V15H37zM38,14H39V15H38zM43,14H44V15H43zM44,14H45V15H44zM52,14H53V15H52zM55,14H56V15H55zM57,14H58V15H57zM58,14H59V15H58zM59,14H60V15H59zM2,15H3V16H2zM3,15H4V16H3zM4,15H5V16H4zM6,15H7V16H6zM7,15H8V16H7zM10,15H11V16H10zM12,15H13V16H12zM13,15H14V16H13zM16,15H17V16H16zM17,15H18V16H17zM21,15H22V16H21zM22,15H23V16H22zM23,15H24V16H23zM24,15H25V16H24zM26,15H27V16H26zM29,15H30V16H29zM31,15H32V16H31zM35,15H36V16H35zM36,15H37V16H36zM37,15H38V16H37zM38,15H39V16H38zM39,15H40V16H39zM40,15H41V16H40zM42,15H43V16H42zM44,15H45V16H44zM46,15H47V16H46zM47,15H48V16H47zM49,15H50V16H49zM50,15H51V16H50zM51,15H52V16H51zM54,15H55V16H54zM60,15H61V16H60zM61,15H62V16H61zM4,16H5V17H4zM5,16H6V17H5zM11,16H12V17H11zM13,16H14V17H13zM14,16H15V17H14zM17,16H18V17H17zM20,16H21V17H20zM21,16H22V17H21zM22,16H23V17H22zM23,16H24V17H23zM25,16H26V17H25zM28,16H29V17H28zM31,16H32V17H31zM32,16H33V17H32zM34,16H35V17H34zM35,16H36V17H35zM36,16H37V17H36zM41,16H42V17H41zM43,16H44V17H43zM45,16H46V17H45zM46,16H47V17H46zM47,16H48V17H47zM49,16H50V17H49zM50,16H51V17H50zM52,16H53V17H52zM53,16H54V17H53zM55,16H56V17H55zM57,16H58V17H57zM61,16H62V17H61zM1,17H2V18H1zM2,17H3V18H2zM5,17H6V18H5zM6,17H7V18H6zM7,17H8V18H7zM8,17H9V18H8zM9,17H10V18H9zM11,17H12V18H11zM12,17H13V18H12zM18,17H19V18H18zM19,17H20V18H19zM25,17H26V18H25zM26,17H27V18H26zM29,17H30V18H29zM30,17H31V18H30zM32,17H33V18H32zM37,17H38V18H37zM38,17H39V18H38zM39,17H40V18H39zM40,17H41V18H40zM42,17H43V18H42zM44,17H45V18H44zM46,17H47V18H46zM47,17H48V18H47zM48,17H49V18H48zM49,17H50V18H49zM50,17H51V18H50zM52,17H53V18H52zM54,17H55V18H54zM55,17H56V18H55zM56,17H57V18H56zM58,17H59V18H58zM59,17H60V18H59zM60,17H61V18H60zM61,17H62V18H61zM1,18H2V19H1zM2,18H3V19H2zM4,18H5V19H4zM8,18H9V19H8zM11,18H12V19H11zM13,18H14V19H13zM14,18H15V19H14zM16,18H17V19H16zM20,18H21V19H20zM22,18H23V19H22zM25,18H26V19H25zM27,18H28V19H27zM30,18H31V19H30zM32,18H33V19H32zM33,18H34V19H33zM34,18H35V19H34zM36,18H37V19H36zM38,18H39V19H38zM42,18H43V19H42zM43,18H44V19H43zM44,18H45V19H44zM45,18H46V19H45zM46,18H47V19H46zM48,18H49V19H48zM52,18H53V19H52zM54,18H55V19H54zM55,18H56V19H55zM58,18H59V19H58zM4,19H5V20H4zM7,19H8V20H7zM9,19H10V20H9zM10,19H11V20H10zM11,19H12V20H11zM18,19H19V20H18zM20,19H21V20H20zM23,19H24V20H23zM25,19H26V20H25zM26,19H27V20H26zM29,19H30V20H29zM31,19H32V20H31zM32,19H33V20H32zM34,19H35V20H34zM35,19H36V20H35zM39,19H40V20H39zM40,19H41V20H40zM44,19H45V20H44zM45,19H46V20H45zM47,19H48V20H47zM48,19H49V20H48zM52,19H53V20H52zM53,19H54V20H53zM56,19H57V20H56zM60,19H61V20H60zM61,19H62V20H61zM3,20H4V21H3zM5,20H6V21H5zM8,20H9V21H8zM9,20H10V21H9zM10,20H11V21H10zM13,20H14V21H13zM15,20H16V21H15zM16,20H17V21H16zM19,20H20V21H19zM21,20H22V21H21zM22,20H23V21H22zM24,20H25V21H24zM25,20H26V21H25zM26,20H27V21H26zM27,20H28V21H27zM30,20H31V21H30zM31,20H32V21H31zM32,20H33V21H32zM34,20H35V21H34zM35,20H36V21H35zM36,20H37V21H36zM37,20H38V21H37zM39,20H40V21H39zM40,20H41V21H40zM43,20H44V21H43zM44,20H45V21H44zM45,20H46V21H45zM47,20H48V21H47zM50,20H51V21H50zM51,20H52V21H51zM52,20H53V21H52zM53,20H54V21H53zM55,20H56V21H55zM56,20H57V21H56zM57,20H58V21H57zM61,20H62V21H61zM2,21H3V22H2zM4,21H5V22H4zM7,21H8V22H7zM9,21H10V22H9zM11,21H12V22H11zM12,21H13V22H12zM14,21H15V22H14zM16,21H17V22H16zM17,21H18V22H17zM19,21H20V22H19zM24,21H25V22H24zM31,21H32V22H31zM35,21H36V22H35zM36,21H37V22H36zM37,21H38V22H37zM38,21H39V22H38zM41,21H42V22H41zM43,21H44V22H43zM48,21H49V22H48zM49,21H50V22H49zM51,21H52V22H51zM53,21H54V22H53zM54,21H55V22H54zM58,21H59V22H58zM59,21H60V22H59zM60,21H61V22H60zM61,21H62V22H61zM2,22H3V23H2zM5,22H6V23H5zM8,22H9V23H8zM12,22H13V23H12zM13,22H14V23H13zM15,22H16V23H15zM16,22H17V23H16zM23,22H24V23H23zM25,22H26V23H25zM29,22H30V23H29zM30,22H31V23H30zM31,22H32V23H31zM32,22H33V23H32zM34,22H35V23H34zM36,22H37V23H36zM37,22H38V23H37zM40,22H41V23H40zM43,22H44V23H43zM44,22H45V23H44zM46,22H47V23H46zM48,22H49V23H48zM49,22H50V23H49zM50,22H51V23H50zM52,22H53V23H52zM54,22H55V23H54zM55,22H56V23H55zM56,22H57V23H56zM2,23H3V24H2zM3,23H4V24H3zM6,23H7V24H6zM7,23H8V24H7zM8,23H9V24H8zM9,23H10V24H9zM17,23H18V24H17zM19,23H20V24H19zM21,23H22V24H21zM22,23H23V24H22zM23,23H24V24H23zM28,23H29V24H28zM29,23H30V24H29zM31,23H32V24H31zM32,23H33V24H32zM35,23H36V24H35zM36,23H37V24H36zM37,23H38V24H37zM38,23H39V24H38zM39,23H40V24H39zM40,23H41V24H40zM41,23H42V24H41zM42,23H43V24H42zM44,23H45V24H44zM45,23H46V24H45zM47,23H48V24H47zM51,23H52V24H51zM53,23H54V24H53zM56,23H57V24H56zM60,23H61V24H60zM61,23H62V24H61zM4,24H5V25H4zM5,24H6V25H5zM8,24H9V25H8zM10,24H11V25H10zM13,24H14V25H13zM15,24H16V25H15zM16,24H17V25H16zM17,24H18V25H17zM21,24H22V25H21zM22,24H23V25H22zM23,24H24V25H23zM25,24H26V25H25zM26,24H27V25H26zM27,24H28V25H27zM30,24H31V25H30zM31,24H32V25H31zM32,24H33V25H32zM35,24H36V25H35zM40,24H41V25H40zM41,24H42V25H41zM43,24H44V25H43zM46,24H47V25H46zM47,24H48V25H47zM48,24H49V25H48zM50,24H51V25H50zM52,24H53V25H52zM53,24H54V25H53zM55,24H56V25H55zM56,24H57V25H56zM60,24H61V25H60zM61,24H62V25H61zM2,25H3V26H2zM3,25H4V26H3zM6,25H7V26H6zM7,25H8V26H7zM9,25H10V26H9zM12,25H13V26H12zM13,25H14V26H13zM14,25H15V26H14zM15,25H16V26H15zM16,25H17V26H16zM17,25H18V26H17zM18,25H19V26H18zM19,25H20V26H19zM22,25H23V26H22zM26,25H27V26H26zM28,25H29V26H28zM33,25H34V26H33zM34,25H35V26H34zM35,25H36V26H35zM36,25H37V26H36zM37,25H38V26H37zM42,25H43V26H42zM44,25H45V26H44zM49,25H50V26H49zM51,25H52V26H51zM52,25H53V26H52zM53,25H54V26H53zM54,25H55V26H54zM56,25H57V26H56zM58,25H59V26H58zM3,26H4V27H3zM6,26H7V27H6zM8,26H9V27H8zM9,26H10V27H9zM10,26H11V27H10zM12,26H13V27H12zM13,26H14V27H13zM15,26H16V27H15zM19,26H20V27H19zM20,26H21V27H20zM22,26H23V27H22zM24,26H25V27H24zM25,26H26V27H25zM27,26H28V27H27zM29,26H30V27H29zM31,26H32V27H31zM32,26H33V27H32zM33,26H34V27H33zM34,26H35V27H34zM37,26H38V27H37zM38,26H39V27H38zM40,26H41V27H40zM41,26H42V27H41zM42,26H43V27H42zM43,26H44V27H43zM45,26H46V27H45zM49,26H50V27H49zM50,26H51V27H50zM54,26H55V27H54zM55,26H56V27H55zM57,26H58V27H57zM58,26H59V27H58zM59,26H60V27H59zM61,26H62V27H61zM1,27H2V28H1zM7,27H8V28H7zM8,27H9V28H8zM10,27H11V28H10zM11,27H12V28H11zM13,27H14V28H13zM17,27H18V28H17zM21,27H22V28H21zM22,27H23V28H22zM23,27H24V28H23zM26,27H27V28H26zM29,27H30V28H29zM30,27H31V28H30zM34,27H35V28H34zM36,27H37V28H36zM37,27H38V28H37zM38,27H39V28H38zM39,27H40V28H39zM40,27H41V28H40zM42,27H43V28H42zM45,27H46V28H45zM48,27H49V28H48zM52,27H53V28H52zM53,27H54V28H53zM55,27H56V28H55zM57,27H58V28H57zM58,27H59V28H58zM59,27H60V28H59zM60,27H61V28H60zM61,27H62V28H61zM3,28H4V29H3zM5,28H6V29H5zM12,28H13V29H12zM13,28H14V29H13zM14,28H15V29H14zM15,28H16V29H15zM16,28H17V29H16zM18,28H19V29H18zM19,28H20V29H19zM20,28H21V29H20zM24,28H25V29H24zM31,28H32V29H31zM33,28H34V29H33zM34,28H35V29H34zM35,28H36V29H35zM40,28H41V29H40zM41,28H42V29H41zM43,28H44V29H43zM45,28H46V29H45zM47,28H48V29H47zM48,28H49V29H48zM50,28H51V29H50zM53,28H54V29H53zM55,28H56V29H55zM56,28H57V29H56zM57,28H58V29H57zM58,28H59V29H58zM60,28H61V29H60zM1,29H2V30H1zM2,29H3V30H2zM5,29H6V30H5zM6,29H7V30H6zM7,29H8V30H7zM8,29H9V30H8zM9,29H10V30H9zM11,29H12V30H11zM12,29H13V30H12zM14,29H15V30H14zM15,29H16V30H15zM16,29H17V30H16zM17,29H18V30H17zM18,29H19V30H18zM19,29H20V30H19zM21,29H22V30H21zM24,29H25V30H24zM29,29H30V30H29zM30,29H31V30H30zM31,29H32V30H31zM32,29H33V30H32zM33,29H34V30H33zM34,29H35V30H34zM35,29H36V30H35zM36,29H37V30H36zM37,29H38V30H37zM42,29H43V30H42zM43,29H44V30H43zM44,29H45V30H44zM46,29H47V30H46zM49,29H50V30H49zM51,29H52V30H51zM53,29H54V30H53zM54,29H55V30H54zM55,29H56V30H55zM56,29H57V30H56zM57,29H58V30H57zM59,29H60V30H59zM1,30H2V31H1zM4,30H5V31H4zM5,30H6V31H5zM9,30H10V31H9zM10,30H11V31H10zM12,30H13V31H12zM14,30H15V31H14zM15,30H16V31H15zM19,30H20V31H19zM20,30H21V31H20zM24,30H25V31H24zM25,30H26V31H25zM27,30H28V31H27zM28,30H29V31H28zM29,30H30V31H29zM33,30H34V31H33zM36,30H37V31H36zM38,30H39V31H38zM40,30H41V31H40zM42,30H43V31H42zM43,30H44V31H43zM44,30H45V31H44zM45,30H46V31H45zM49,30H50V31H49zM53,30H54V31H53zM57,30H58V31H57zM58,30H59V31H58zM60,30H61V31H60zM1,31H2V32H1zM3,31H4V32H3zM5,31H6V32H5zM7,31H8V32H7zM9,31H10V32H9zM10,31H11V32H10zM11,31H12V32H11zM15,31H16V32H15zM16,31H17V32H16zM17,31H18V32H17zM19,31H20V32H19zM20,31H21V32H20zM29,31H30V32H29zM31,31H32V32H31zM33,31H34V32H33zM35,31H36V32H35zM36,31H37V32H36zM37,31H38V32H37zM38,31H39V32H38zM39,31H40V32H39zM40,31H41V32H40zM44,31H45V32H44zM46,31H47V32H46zM47,31H48V32H47zM49,31H50V32H49zM50,31H51V32H50zM51,31H52V32H51zM52,31H53V32H52zM53,31H54V32H53zM55,31H56V32H55zM57,31H58V32H57zM60,31H61V32H60zM61,31H62V32H61zM3,32H4V33H3zM4,32H5V33H4zM5,32H6V33H5zM9,32H10V33H9zM11,32H12V33H11zM12,32H13V33H12zM15,32H16V33H15zM16,32H17V33H16zM21,32H22V33H21zM24,32H25V33H24zM26,32H27V33H26zM28,32H29V33H28zM29,32H30V33H29zM33,32H34V33H33zM34,32H35V33H34zM38,32H39V33H38zM40,32H41V33H40zM41,32H42V33H41zM42,32H43V33H42zM43,32H44V33H43zM45,32H46V33H45zM46,32H47V33H46zM49,32H50V33H49zM51,32H52V33H51zM52,32H53V33H52zM53,32H54V33H53zM57,32H58V33H57zM60,32H61V33H60zM3,33H4V34H3zM5,33H6V34H5zM6,33H7V34H6zM7,33H8V34H7zM8,33H9V34H8zM9,33H10V34H9zM10,33H11V34H10zM13,33H14V34H13zM14,33H15V34H14zM16,33H17V34H16zM18,33H19V34H18zM19,33H20V34H19zM26,33H27V34H26zM29,33H30V34H29zM30,33H31V34H30zM31,33H32V34H31zM32,33H33V34H32zM33,33H34V34H33zM34,33H35V34H34zM37,33H38V34H37zM38,33H39V34H38zM42,33H43V34H42zM43,33H44V34H43zM44,33H45V34H44zM47,33H48V34H47zM48,33H49V34H48zM49,33H50V34H49zM51,33H52V34H51zM53,33H54V34H53zM54,33H55V34H54zM55,33H56V34H55zM56,33H57V34H56zM57,33H58V34H57zM58,33H59V34H58zM59,33H60V34H59zM61,33H62V34H61zM4,34H5V35H4zM5,34H6V35H5zM6,34H7V35H6zM9,34H10V35H9zM11,34H12V35H11zM13,34H14V35H13zM15,34H16V35H15zM17,34H18V35H17zM20,34H21V35H20zM22,34H23V35H22zM24,34H25V35H24zM25,34H26V35H25zM27,34H28V35H27zM30,34H31V35H30zM32,34H33V35H32zM34,34H35V35H34zM38,34H39V35H38zM40,34H41V35H40zM41,34H42V35H41zM43,34H44V35H43zM45,34H46V35H45zM46,34H47V35H46zM48,34H49V35H48zM49,34H50V35H49zM52,34H53V35H52zM53,34H54V35H53zM56,34H57V35H56zM59,34H60V35H59zM60,34H61V35H60zM2,35H3V36H2zM5,35H6V36H5zM6,35H7V36H6zM7,35H8V36H7zM9,35H10V36H9zM11,35H12V36H11zM14,35H15V36H14zM15,35H16V36H15zM16,35H17V36H16zM17,35H18V36H17zM18,35H19V36H18zM20,35H21V36H20zM27,35H28V36H27zM28,35H29V36H28zM29,35H30V36H29zM32,35H33V36H32zM33,35H34V36H33zM35,35H36V36H35zM39,35H40V36H39zM44,35H45V36H44zM46,35H47V36H46zM47,35H48V36H47zM54,35H55V36H54zM55,35H56V36H55zM56,35H57V36H56zM58,35H59V36H58zM60,35H61V36H60zM61,35H62V36H61zM1,36H2V37H1zM3,36H4V37H3zM5,36H6V37H5zM6,36H7V37H6zM12,36H13V37H12zM14,36H15V37H14zM17,36H18V37H17zM19,36H20V37H19zM22,36H23V37H22zM24,36H25V37H24zM27,36H28V37H27zM28,36H29V37H28zM30,36H31V37H30zM34,36H35V37H34zM35,36H36V37H35zM36,36H37V37H36zM37,36H38V37H37zM38,36H39V37H38zM40,36H41V37H40zM41,36H42V37H41zM42,36H43V37H42zM43,36H44V37H43zM45,36H46V37H45zM46,36H47V37H46zM47,36H48V37H47zM52,36H53V37H52zM58,36H59V37H58zM60,36H61V37H60zM1,37H2V38H1zM4,37H5V38H4zM7,37H8V38H7zM13,37H14V38H13zM14,37H15V38H14zM16,37H17V38H16zM17,37H18V38H17zM18,37H19V38H18zM19,37H20V38H19zM24,37H25V38H24zM25,37H26V38H25zM30,37H31V38H30zM31,37H32V38H31zM32,37H33V38H32zM35,37H36V38H35zM36,37H37V38H36zM37,37H38V38H37zM38,37H39V38H38zM42,37H43V38H42zM43,37H44V38H43zM48,37H49V38H48zM49,37H50V38H49zM50,37H51V38H50zM52,37H53V38H52zM54,37H55V38H54zM55,37H56V38H55zM56,37H57V38H56zM57,37H58V38H57zM58,37H59V38H58zM59,37H60V38H59zM61,37H62V38H61zM1,38H2V39H1zM2,38H3V39H2zM5,38H6V39H5zM9,38H10V39H9zM11,38H12V39H11zM14,38H15V39H14zM15,38H16V39H15zM18,38H19V39H18zM22,38H23V39H22zM23,38H24V39H23zM24,38H25V39H24zM25,38H26V39H25zM31,38H32V39H31zM32,38H33V39H32zM34,38H35V39H34zM41,38H42V39H41zM43,38H44V39H43zM45,38H46V39H45zM46,38H47V39H46zM49,38H50V39H49zM50,38H51V39H50zM52,38H53V39H52zM53,38H54V39H53zM56,38H57V39H56zM3,39H4V40H3zM6,39H7V40H6zM7,39H8V40H7zM8,39H9V40H8zM11,39H12V40H11zM13,39H14V40H13zM14,39H15V40H14zM16,39H17V40H16zM17,39H18V40H17zM18,39H19V40H18zM19,39H20V40H19zM22,39H23V40H22zM23,39H24V40H23zM25,39H26V40H25zM27,39H28V40H27zM28,39H29V40H28zM30,39H31V40H30zM31,39H32V40H31zM33,39H34V40H33zM35,39H36V40H35zM38,39H39V40H38zM39,39H40V40H39zM40,39H41V40H40zM42,39H43V40H42zM44,39H45V40H44zM47,39H48V40H47zM48,39H49V40H48zM49,39H50V40H49zM51,39H52V40H51zM52,39H53V40H52zM53,39H54V40H53zM54,39H55V40H54zM55,39H56V40H55zM56,39H57V40H56zM57,39H58V40H57zM59,39H60V40H59zM60,39H61V40H60zM61,39H62V40H61zM4,40H5V41H4zM9,40H10V41H9zM11,40H12V41H11zM12,40H13V41H12zM13,40H14V41H13zM16,40H17V41H16zM19,40H20V41H19zM20,40H21V41H20zM22,40H23V41H22zM23,40H24V41H23zM24,40H25V41H24zM25,40H26V41H25zM29,40H30V41H29zM30,40H31V41H30zM31,40H32V41H31zM32,40H33V41H32zM34,40H35V41H34zM35,40H36V41H35zM36,40H37V41H36zM41,40H42V41H41zM42,40H43V41H42zM43,40H44V41H43zM46,40H47V41H46zM49,40H50V41H49zM50,40H51V41H50zM60,40H61V41H60zM61,40H62V41H61zM1,41H2V42H1zM6,41H7V42H6zM7,41H8V42H7zM10,41H11V42H10zM15,41H16V42H15zM17,41H18V42H17zM19,41H20V42H19zM20,41H21V42H20zM26,41H27V42H26zM31,41H32V42H31zM33,41H34V42H33zM34,41H35V42H34zM35,41H36V42H35zM36,41H37V42H36zM37,41H38V42H37zM39,41H40V42H39zM43,41H44V42H43zM46,41H47V42H46zM48,41H49V42H48zM49,41H50V42H49zM50,41H51V42H50zM52,41H53V42H52zM54,41H55V42H54zM55,41H56V42H55zM57,41H58V42H57zM58,41H59V42H58zM60,41H61V42H60zM61,41H62V42H61zM1,42H2V43H1zM2,42H3V43H2zM3,42H4V43H3zM6,42H7V43H6zM8,42H9V43H8zM10,42H11V43H10zM11,42H12V43H11zM12,42H13V43H12zM14,42H15V43H14zM15,42H16V43H15zM19,42H20V43H19zM20,42H21V43H20zM22,42H23V43H22zM25,42H26V43H25zM27,42H28V43H27zM29,42H30V43H29zM30,42H31V43H30zM34,42H35V43H34zM36,42H37V43H36zM38,42H39V43H38zM41,42H42V43H41zM42,42H43V43H42zM43,42H44V43H43zM45,42H46V43H45zM48,42H49V43H48zM49,42H50V43H49zM50,42H51V43H50zM54,42H55V43H54zM55,42H56V43H55zM56,42H57V43H56zM58,42H59V43H58zM60,42H61V43H60zM2,43H3V44H2zM4,43H5V44H4zM6,43H7V44H6zM7,43H8V44H7zM8,43H9V44H8zM9,43H10V44H9zM10,43H11V44H10zM12,43H13V44H12zM13,43H14V44H13zM14,43H15V44H14zM16,43H17V44H16zM18,43H19V44H18zM19,43H20V44H19zM21,43H22V44H21zM22,43H23V44H22zM24,43H25V44H24zM25,43H26V44H25zM28,43H29V44H28zM29,43H30V44H29zM34,43H35V44H34zM37,43H38V44H37zM39,43H40V44H39zM41,43H42V44H41zM45,43H46V44H45zM46,43H47V44H46zM48,43H49V44H48zM49,43H50V44H49zM50,43H51V44H50zM54,43H55V44H54zM55,43H56V44H55zM56,43H57V44H56zM59,43H60V44H59zM61,43H62V44H61zM1,44H2V45H1zM2,44H3V45H2zM3,44H4V45H3zM4,44H5V45H4zM9,44H10V45H9zM14,44H15V45H14zM15,44H16V45H15zM16,44H17V45H16zM19,44H20V45H19zM21,44H22V45H21zM22,44H23V45H22zM25,44H26V45H25zM30,44H31V45H30zM31,44H32V45H31zM32,44H33V45H32zM34,44H35V45H34zM41,44H42V45H41zM42,44H43V45H42zM43,44H44V45H43zM44,44H45V45H44zM45,44H46V45H45zM47,44H48V45H47zM48,44H49V45H48zM50,44H51V45H50zM56,44H57V45H56zM58,44H59V45H58zM60,44H61V45H60zM61,44H62V45H61zM1,45H2V46H1zM2,45H3V46H2zM4,45H5V46H4zM5,45H6V46H5zM6,45H7V46H6zM7,45H8V46H7zM9,45H10V46H9zM10,45H11V46H10zM11,45H12V46H11zM12,45H13V46H12zM14,45H15V46H14zM15,45H16V46H15zM17,45H18V46H17zM19,45H20V46H19zM21,45H22V46H21zM26,45H27V46H26zM28,45H29V46H28zM29,45H30V46H29zM30,45H31V46H30zM31,45H32V46H31zM35,45H36V46H35zM36,45H37V46H36zM37,45H38V46H37zM40,45H41V46H40zM42,45H43V46H42zM43,45H44V46H43zM44,45H45V46H44zM46,45H47V46H46zM49,45H50V46H49zM50,45H51V46H50zM52,45H53V46H52zM53,45H54V46H53zM55,45H56V46H55zM56,45H57V46H56zM57,45H58V46H57zM59,45H60V46H59zM61,45H62V46H61zM2,46H3V47H2zM4,46H5V47H4zM5,46H6V47H5zM9,46H10V47H9zM10,46H11V47H10zM11,46H12V47H11zM12,46H13V47H12zM14,46H15V47H14zM18,46H19V47H18zM20,46H21V47H20zM22,46H23V47H22zM24,46H25V47H24zM25,46H26V47H25zM29,46H30V47H29zM32,46H33V47H32zM38,46H39V47H38zM40,46H41V47H40zM41,46H42V47H41zM43,46H44V47H43zM45,46H46V47H45zM49,46H50V47H49zM52,46H53V47H52zM54,46H55V47H54zM55,46H56V47H55zM59,46H60V47H59zM60,46H61V47H60zM5,47H6V48H5zM6,47H7V48H6zM7,47H8V48H7zM8,47H9V48H8zM10,47H11V48H10zM11,47H12V48H11zM12,47H13V48H12zM15,47H16V48H15zM20,47H21V48H20zM23,47H24V48H23zM24,47H25V48H24zM26,47H27V48H26zM28,47H29V48H28zM29,47H30V48H29zM30,47H31V48H30zM31,47H32V48H31zM32,47H33V48H32zM33,47H34V48H33zM34,47H35V48H34zM35,47H36V48H35zM36,47H37V48H36zM39,47H40V48H39zM40,47H41V48H40zM42,47H43V48H42zM44,47H45V48H44zM45,47H46V48H45zM46,47H47V48H46zM47,47H48V48H47zM48,47H49V48H48zM49,47H50V48H49zM51,47H52V48H51zM52,47H53V48H52zM54,47H55V48H54zM55,47H56V48H55zM57,47H58V48H57zM58,47H59V48H58zM59,47H60V48H59zM60,47H61V48H60zM61,47H62V48H61zM3,48H4V49H3zM10,48H11V49H10zM12,48H13V49H12zM14,48H15V49H14zM18,48H19V49H18zM19,48H20V49H19zM20,48H21V49H20zM21,48H22V49H21zM22,48H23V49H22zM23,48H24V49H23zM24,48H25V49H24zM27,48H28V49H27zM28,48H29V49H28zM29,48H30V49H29zM34,48H35V49H34zM36,48H37V49H36zM40,48H41V49H40zM41,48H42V49H41zM42,48H43V49H42zM44,48H45V49H44zM45,48H46V49H45zM47,48H48V49H47zM49,48H50V49H49zM51,48H52V49H51zM54,48H55V49H54zM55,48H56V49H55zM56,48H57V49H56zM57,48H58V49H57zM58,48H59V49H58zM60,48H61V49H60zM1,49H2V50H1zM2,49H3V50H2zM4,49H5V50H4zM7,49H8V50H7zM8,49H9V50H8zM10,49H11V50H10zM12,49H13V50H12zM13,49H14V50H13zM15,49H16V50H15zM18,49H19V50H18zM19,49H20V50H19zM26,49H27V50H26zM28,49H29V50H28zM29,49H30V50H29zM31,49H32V50H31zM34,49H35V50H34zM35,49H36V50H35zM37,49H38V50H37zM39,49H40V50H39zM43,49H44V50H43zM44,49H45V50H44zM46,49H47V50H46zM47,49H48V50H47zM48,49H49V50H48zM49,49H50V50H49zM51,49H52V50H51zM52,49H53V50H52zM55,49H56V50H55zM57,49H58V50H57zM58,49H59V50H58zM59,49H60V50H59zM60,49H61V50H60zM1,50H2V51H1zM3,50H4V51H3zM5,50H6V51H5zM6,50H7V51H6zM8,50H9V51H8zM9,50H10V51H9zM10,50H11V51H10zM12,50H13V51H12zM14,50H15V51H14zM15,50H16V51H15zM16,50H17V51H16zM18,50H19V51H18zM20,50H21V51H20zM22,50H23V51H22zM24,50H25V51H24zM25,50H26V51H25zM27,50H28V51H27zM30,50H31V51H30zM33,50H34V51H33zM34,50H35V51H34zM38,50H39V51H38zM40,50H41V51H40zM41,50H42V51H41zM42,50H43V51H42zM43,50H44V51H43zM44,50H45V51H44zM46,50H47V51H46zM48,50H49V51H48zM50,50H51V51H50zM56,50H57V51H56zM59,50H60V51H59zM60,50H61V51H60zM3,51H4V52H3zM4,51H5V52H4zM5,51H6V52H5zM6,51H7V52H6zM7,51H8V52H7zM8,51H9V52H8zM10,51H11V52H10zM11,51H12V52H11zM12,51H13V52H12zM13,51H14V52H13zM14,51H15V52H14zM18,51H19V52H18zM19,51H20V52H19zM20,51H21V52H20zM22,51H23V52H22zM24,51H25V52H24zM25,51H26V52H25zM27,51H28V52H27zM28,51H29V52H28zM29,51H30V52H29zM30,51H31V52H30zM31,51H32V52H31zM32,51H33V52H32zM33,51H34V52H33zM35,51H36V52H35zM36,51H37V52H36zM37,51H38V52H37zM39,51H40V52H39zM42,51H43V52H42zM44,51H45V52H44zM45,51H46V52H45zM47,51H48V52H47zM49,51H50V52H49zM50,51H51V52H50zM52,51H53V52H52zM55,51H56V52H55zM58,51H59V52H58zM60,51H61V52H60zM61,51H62V52H61zM1,52H2V53H1zM2,52H3V53H2zM3,52H4V53H3zM5,52H6V53H5zM9,52H10V53H9zM12,52H13V53H12zM16,52H17V53H16zM18,52H19V53H18zM20,52H21V53H20zM21,52H22V53H21zM25,52H26V53H25zM27,52H28V53H27zM28,52H29V53H28zM31,52H32V53H31zM37,52H38V53H37zM40,52H41V53H40zM41,52H42V53H41zM45,52H46V53H45zM46,52H47V53H46zM47,52H48V53H47zM48,52H49V53H48zM52,52H53V53H52zM53,52H54V53H53zM54,52H55V53H54zM60,52H61V53H60zM61,52H62V53H61zM1,53H2V54H1zM2,53H3V54H2zM3,53H4V54H3zM4,53H5V54H4zM7,53H8V54H7zM12,53H13V54H12zM14,53H15V54H14zM17,53H18V54H17zM18,53H19V54H18zM19,53H20V54H19zM20,53H21V54H20zM21,53H22V54H21zM25,53H26V54H25zM26,53H27V54H26zM28,53H29V54H28zM29,53H30V54H29zM30,53H31V54H30zM31,53H32V54H31zM32,53H33V54H32zM33,53H34V54H33zM34,53H35V54H34zM37,53H38V54H37zM39,53H40V54H39zM42,53H43V54H42zM44,53H45V54H44zM46,53H47V54H46zM48,53H49V54H48zM49,53H50V54H49zM50,53H51V54H50zM51,53H52V54H51zM52,53H53V54H52zM53,53H54V54H53zM54,53H55V54H54zM55,53H56V54H55zM56,53H57V54H56zM57,53H58V54H57zM59,53H60V54H59zM61,53H62V54H61zM9,54H10V55H9zM11,54H12V55H11zM12,54H13V55H12zM13,54H14V55H13zM15,54H16V55H15zM20,54H21V55H20zM22,54H23V55H22zM23,54H24V55H23zM24,54H25V55H24zM25,54H26V55H25zM28,54H29V55H28zM29,54H30V55H29zM33,54H34V55H33zM34,54H35V55H34zM41,54H42V55H41zM42,54H43V55H42zM43,54H44V55H43zM46,54H47V55H46zM49,54H50V55H49zM50,54H51V55H50zM52,54H53V55H52zM53,54H54V55H53zM57,54H58V55H57zM58,54H59V55H58zM59,54H60V55H59zM60,54H61V55H60zM1,55H2V56H1zM2,55H3V56H2zM3,55H4V56H3zM4,55H5V56H4zM5,55H6V56H5zM6,55H7V56H6zM7,55H8V56H7zM9,55H10V56H9zM10,55H11V56H10zM12,55H13V56H12zM13,55H14V56H13zM17,55H18V56H17zM18,55H19V56H18zM21,55H22V56H21zM24,55H25V56H24zM25,55H26V56H25zM26,55H27V56H26zM27,55H28V56H27zM29,55H30V56H29zM31,55H32V56H31zM33,55H34V56H33zM35,55H36V56H35zM40,55H41V56H40zM42,55H43V56H42zM43,55H44V56H43zM44,55H45V56H44zM47,55H48V56H47zM51,55H52V56H51zM53,55H54V56H53zM55,55H56V56H55zM57,55H58V56H57zM60,55H61V56H60zM61,55H62V56H61zM1,56H2V57H1zM7,56H8V57H7zM10,56H11V57H10zM15,56H16V57H15zM17,56H18V57H17zM20,56H21V57H20zM21,56H22V57H21zM25,56H26V57H25zM29,56H30V57H29zM33,56H34V57H33zM34,56H35V57H34zM35,56H36V57H35zM36,56H37V57H36zM38,56H39V57H38zM40,56H41V57H40zM41,56H42V57H41zM43,56H44V57H43zM49,56H50V57H49zM52,56H53V57H52zM53,56H54V57H53zM57,56H58V57H57zM60,56H61V57H60zM61,56H62V57H61zM1,57H2V58H1zM3,57H4V58H3zM4,57H5V58H4zM5,57H6V58H5zM7,57H8V58H7zM9,57H10V58H9zM10,57H11V58H10zM11,57H12V58H11zM12,57H13V58H12zM13,57H14V58H13zM16,57H17V58H16zM18,57H19V58H18zM20,57H21V58H20zM21,57H22V58H21zM26,57H27V58H26zM28,57H29V58H28zM29,57H30V58H29zM30,57H31V58H30zM31,57H32V58H31zM32,57H33V58H32zM33,57H34V58H33zM34,57H35V58H34zM35,57H36V58H35zM36,57H37V58H36zM37,57H38V58H37zM38,57H39V58H38zM42,57H43V58H42zM43,57H44V58H43zM48,57H49V58H48zM49,57H50V58H49zM51,57H52V58H51zM52,57H53V58H52zM53,57H54V58H53zM54,57H55V58H54zM55,57H56V58H55zM56,57H57V58H56zM57,57H58V58H57zM58,57H59V58H58zM60,57H61V58H60zM61,57H62V58H61zM1,58H2V59H1zM3,58H4V59H3zM4,58H5V59H4zM5,58H6V59H5zM7,58H8V59H7zM9,58H10V59H9zM10,58H11V59H10zM11,58H12V59H11zM15,58H16V59H15zM19,58H20V59H19zM22,58H23V59H22zM24,58H25V59H24zM25,58H26V59H25zM27,58H28V59H27zM30,58H31V59H30zM31,58H32V59H31zM32,58H33V59H32zM36,58H37V59H36zM37,58H38V59H37zM38,58H39V59H38zM41,58H42V59H41zM42,58H43V59H42zM43,58H44V59H43zM46,58H47V59H46zM49,58H50V59H49zM50,58H51V59H50zM53,58H54V59H53zM54,58H55V59H54zM55,58H56V59H55zM56,58H57V59H56zM57,58H58V59H57zM61,58H62V59H61zM1,59H2V60H1zM3,59H4V60H3zM4,59H5V60H4zM5,59H6V60H5zM7,59H8V60H7zM9,59H10V60H9zM11,59H12V60H11zM13,59H14V60H13zM15,59H16V60H15zM16,59H17V60H16zM17,59H18V60H17zM28,59H29V60H28zM32,59H33V60H32zM37,59H38V60H37zM39,59H40V60H39zM47,59H48V60H47zM48,59H49V60H48zM49,59H50V60H49zM50,59H51V60H50zM52,59H53V60H52zM56,59H57V60H56zM58,59H59V60H58zM61,59H62V60H61zM1,60H2V61H1zM7,60H8V61H7zM9,60H10V61H9zM10,60H11V61H10zM14,60H15V61H14zM16,60H17V61H16zM17,60H18V61H17zM20,60H21V61H20zM24,60H25V61H24zM25,60H26V61H25zM26,60H27V61H26zM27,60H28V61H27zM28,60H29V61H28zM33,60H34V61H33zM39,60H40V61H39zM41,60H42V61H41zM45,60H46V61H45zM48,60H49V61H48zM50,60H51V61H50zM51,60H52V61H51zM52,60H53V61H52zM54,60H55V61H54zM55,60H56V61H55zM56,60H57V61H56zM58,60H59V61H58zM61,60H62V61H61zM1,61H2V62H1zM2,61H3V62H2zM3,61H4V62H3zM4,61H5V62H4zM5,61H6V62H5zM6,61H7V62H6zM7,61H8V62H7zM9,61H10V62H9zM13,61H14V62H13zM15,61H16V62H15zM17,61H18V62H17zM18,61H19V62H18zM19,61H20V62H19zM20,61H21V62H20zM21,61H22V62H21zM22,61H23V62H22zM26,61H27V62H26zM32,61H33V62H32zM36,61H37V62H36zM37,61H38V62H37zM38,61H39V62H38zM40,61H41V62H40zM43,61H44V62H43zM44,61H45V62H44zM49,61H50V62H49zM50,61H51V62H50zM53,61H54V62H53zM56,61H57V62H56zM57,61H58V62H57zM59,61H60V62H59zM60,61H61V62H60zM61,61H62V62H61z" id="qr-path" fill="#000000" fill-opacity="1" fill-rule="nonzero" stroke="none" /></svg>